solid OpenSCAD_Model
  facet normal -0 0 1
    outer loop
      vertex -7.5 12.5 -13.1
      vertex 7.5 -24.5 -13.1
      vertex 7.5 12.5 -13.1
    endloop
  endfacet
  facet normal 0 0 1
    outer loop
      vertex 7.5 -24.5 -13.1
      vertex -7.5 12.5 -13.1
      vertex -7.5 -24.5 -13.1
    endloop
  endfacet
  facet normal -1 0 0
    outer loop
      vertex -7.5 -24.5 -32.5
      vertex -7.5 12.5 -13.1
      vertex -7.5 12.5 -32.5
    endloop
  endfacet
  facet normal -1 -0 0
    outer loop
      vertex -7.5 12.5 -13.1
      vertex -7.5 -24.5 -32.5
      vertex -7.5 -24.5 -13.1
    endloop
  endfacet
  facet normal 1 -0 0
    outer loop
      vertex 7.5 -24.5 -13.1
      vertex 7.5 12.5 -32.5
      vertex 7.5 12.5 -13.1
    endloop
  endfacet
  facet normal 1 0 0
    outer loop
      vertex 7.5 12.5 -32.5
      vertex 7.5 -24.5 -13.1
      vertex 7.5 -24.5 -32.5
    endloop
  endfacet
  facet normal 0 1 -0
    outer loop
      vertex 7.5 12.5 -32.5
      vertex -7.5 12.5 -13.1
      vertex 7.5 12.5 -13.1
    endloop
  endfacet
  facet normal 0 1 0
    outer loop
      vertex -7.5 12.5 -13.1
      vertex 7.5 12.5 -32.5
      vertex -7.5 12.5 -32.5
    endloop
  endfacet
  facet normal 0 0 -1
    outer loop
      vertex -7.5 -24.5 -32.5
      vertex 7.5 12.5 -32.5
      vertex 7.5 -24.5 -32.5
    endloop
  endfacet
  facet normal -0 0 -1
    outer loop
      vertex 7.5 12.5 -32.5
      vertex -7.5 -24.5 -32.5
      vertex -7.5 12.5 -32.5
    endloop
  endfacet
  facet normal 0 -1 0
    outer loop
      vertex -7.5 -24.5 -32.5
      vertex 7.5 -24.5 -13.1
      vertex -7.5 -24.5 -13.1
    endloop
  endfacet
  facet normal 0 -1 -0
    outer loop
      vertex 7.5 -24.5 -13.1
      vertex -7.5 -24.5 -32.5
      vertex 7.5 -24.5 -32.5
    endloop
  endfacet
endsolid OpenSCAD_Model
