solid OpenSCAD_Model
  facet normal -1 0 0
    outer loop
      vertex 62.5 0 3
      vertex 62.5 13 12.5
      vertex 62.5 13 3
    endloop
  endfacet
  facet normal -1 -0 0
    outer loop
      vertex 62.5 13 12.5
      vertex 62.5 0 3
      vertex 62.5 0 12.5
    endloop
  endfacet
  facet normal 0 0 -1
    outer loop
      vertex 61 0 12.5
      vertex 62.5 13 12.5
      vertex 62.5 0 12.5
    endloop
  endfacet
  facet normal -0 0 -1
    outer loop
      vertex 62.5 13 12.5
      vertex 61 0 12.5
      vertex 61 13 12.5
    endloop
  endfacet
  facet normal 0 0 -1
    outer loop
      vertex 0 0 12.5
      vertex 1.5 13 12.5
      vertex 1.5 0 12.5
    endloop
  endfacet
  facet normal -0 0 -1
    outer loop
      vertex 1.5 13 12.5
      vertex 0 0 12.5
      vertex 0 13 12.5
    endloop
  endfacet
  facet normal 0 0 1
    outer loop
      vertex 62.5 13 3
      vertex 35.75 6.5 3
      vertex 62.5 0 3
    endloop
  endfacet
  facet normal 0 0 1
    outer loop
      vertex 62.5 13 3
      vertex 35.4075 8.22207 3
      vertex 35.75 6.5 3
    endloop
  endfacet
  facet normal 0 0 1
    outer loop
      vertex 62.5 13 3
      vertex 34.432 9.68198 3
      vertex 35.4075 8.22207 3
    endloop
  endfacet
  facet normal 0 0 1
    outer loop
      vertex 62.5 13 3
      vertex 32.9721 10.6575 3
      vertex 34.432 9.68198 3
    endloop
  endfacet
  facet normal 0 0 1
    outer loop
      vertex 62.5 13 3
      vertex 31.25 11 3
      vertex 32.9721 10.6575 3
    endloop
  endfacet
  facet normal 0 0 1
    outer loop
      vertex 27.0925 8.22207 3
      vertex 0 13 3
      vertex 26.75 6.5 3
    endloop
  endfacet
  facet normal 0 0 1
    outer loop
      vertex 28.068 9.68198 3
      vertex 0 13 3
      vertex 27.0925 8.22207 3
    endloop
  endfacet
  facet normal 0 0 1
    outer loop
      vertex 29.5279 10.6575 3
      vertex 0 13 3
      vertex 28.068 9.68198 3
    endloop
  endfacet
  facet normal 0 0 1
    outer loop
      vertex 31.25 11 3
      vertex 0 13 3
      vertex 29.5279 10.6575 3
    endloop
  endfacet
  facet normal -0 0 1
    outer loop
      vertex 0 13 3
      vertex 31.25 11 3
      vertex 62.5 13 3
    endloop
  endfacet
  facet normal -0 0 1
    outer loop
      vertex 35.4075 4.77792 3
      vertex 62.5 0 3
      vertex 35.75 6.5 3
    endloop
  endfacet
  facet normal -0 0 1
    outer loop
      vertex 34.432 3.31802 3
      vertex 62.5 0 3
      vertex 35.4075 4.77792 3
    endloop
  endfacet
  facet normal -0 0 1
    outer loop
      vertex 32.9721 2.34254 3
      vertex 62.5 0 3
      vertex 34.432 3.31802 3
    endloop
  endfacet
  facet normal -0 0 1
    outer loop
      vertex 31.25 2 3
      vertex 62.5 0 3
      vertex 32.9721 2.34254 3
    endloop
  endfacet
  facet normal 0 0 1
    outer loop
      vertex 0 0 3
      vertex 26.75 6.5 3
      vertex 0 13 3
    endloop
  endfacet
  facet normal 0 0 1
    outer loop
      vertex 26.75 6.5 3
      vertex 0 0 3
      vertex 27.0925 4.77792 3
    endloop
  endfacet
  facet normal 0 0 1
    outer loop
      vertex 27.0925 4.77792 3
      vertex 0 0 3
      vertex 28.068 3.31802 3
    endloop
  endfacet
  facet normal 0 0 1
    outer loop
      vertex 31.25 2 3
      vertex 0 0 3
      vertex 62.5 0 3
    endloop
  endfacet
  facet normal 0 0 1
    outer loop
      vertex 29.5279 2.34254 3
      vertex 0 0 3
      vertex 31.25 2 3
    endloop
  endfacet
  facet normal 0 0 1
    outer loop
      vertex 28.068 3.31802 3
      vertex 0 0 3
      vertex 29.5279 2.34254 3
    endloop
  endfacet
  facet normal 1 -0 0
    outer loop
      vertex 0 0 12.5
      vertex 0 13 3
      vertex 0 13 12.5
    endloop
  endfacet
  facet normal 1 0 0
    outer loop
      vertex 0 13 3
      vertex 0 0 12.5
      vertex 0 0 3
    endloop
  endfacet
  facet normal 0 -1 0
    outer loop
      vertex -3 0 15.5
      vertex 0 0 12.5
      vertex 1.5 0 15.5
    endloop
  endfacet
  facet normal 0 -1 0
    outer loop
      vertex -3 0 15.5
      vertex 0 0 3
      vertex 0 0 12.5
    endloop
  endfacet
  facet normal 0 -1 -0
    outer loop
      vertex 0 0 3
      vertex -3 0 -3
      vertex 62.5 0 3
    endloop
  endfacet
  facet normal 0 -1 0
    outer loop
      vertex -3 0 -3
      vertex 0 0 3
      vertex -3 0 15.5
    endloop
  endfacet
  facet normal 0 -1 -0
    outer loop
      vertex 1.5 0 15.5
      vertex 0 0 12.5
      vertex 1.5 0 12.5
    endloop
  endfacet
  facet normal 0 -1 0
    outer loop
      vertex 62.5 0 12.5
      vertex 61 0 15.5
      vertex 61 0 12.5
    endloop
  endfacet
  facet normal 0 -1 0
    outer loop
      vertex 61 0 15.5
      vertex 62.5 0 12.5
      vertex 65.5 0 15.5
    endloop
  endfacet
  facet normal 0 -1 0
    outer loop
      vertex 62.5 0 3
      vertex 65.5 0 15.5
      vertex 62.5 0 12.5
    endloop
  endfacet
  facet normal 0 -1 0
    outer loop
      vertex 62.5 0 3
      vertex 65.5 0 -3
      vertex 65.5 0 15.5
    endloop
  endfacet
  facet normal 0 -1 0
    outer loop
      vertex 65.5 0 -3
      vertex 62.5 0 3
      vertex -3 0 -3
    endloop
  endfacet
  facet normal -1 0 0
    outer loop
      vertex 61 0 12.5
      vertex 61 13 15.5
      vertex 61 13 12.5
    endloop
  endfacet
  facet normal -1 -0 0
    outer loop
      vertex 61 13 15.5
      vertex 61 0 12.5
      vertex 61 0 15.5
    endloop
  endfacet
  facet normal 1 -0 0
    outer loop
      vertex 1.5 0 15.5
      vertex 1.5 13 12.5
      vertex 1.5 13 15.5
    endloop
  endfacet
  facet normal 1 0 0
    outer loop
      vertex 1.5 13 12.5
      vertex 1.5 0 15.5
      vertex 1.5 0 12.5
    endloop
  endfacet
  facet normal 1 -0 0
    outer loop
      vertex 65.5 0 15.5
      vertex 65.5 13 -3
      vertex 65.5 13 15.5
    endloop
  endfacet
  facet normal 1 0 0
    outer loop
      vertex 65.5 13 -3
      vertex 65.5 0 15.5
      vertex 65.5 0 -3
    endloop
  endfacet
  facet normal -0 0 1
    outer loop
      vertex -3 13 15.5
      vertex 1.5 0 15.5
      vertex 1.5 13 15.5
    endloop
  endfacet
  facet normal 0 0 1
    outer loop
      vertex 1.5 0 15.5
      vertex -3 13 15.5
      vertex -3 0 15.5
    endloop
  endfacet
  facet normal -0 0 1
    outer loop
      vertex 61 13 15.5
      vertex 65.5 0 15.5
      vertex 65.5 13 15.5
    endloop
  endfacet
  facet normal 0 0 1
    outer loop
      vertex 65.5 0 15.5
      vertex 61 13 15.5
      vertex 61 0 15.5
    endloop
  endfacet
  facet normal 0 0 -1
    outer loop
      vertex 65.5 0 -3
      vertex 33.25 6.5 -3
      vertex 65.5 13 -3
    endloop
  endfacet
  facet normal 0 0 -1
    outer loop
      vertex 65.5 0 -3
      vertex 33.0978 5.73463 -3
      vertex 33.25 6.5 -3
    endloop
  endfacet
  facet normal 0 0 -1
    outer loop
      vertex 65.5 0 -3
      vertex 32.6642 5.08579 -3
      vertex 33.0978 5.73463 -3
    endloop
  endfacet
  facet normal 0 0 -1
    outer loop
      vertex 65.5 0 -3
      vertex 32.0154 4.65224 -3
      vertex 32.6642 5.08579 -3
    endloop
  endfacet
  facet normal 0 0 -1
    outer loop
      vertex 65.5 0 -3
      vertex 31.25 4.5 -3
      vertex 32.0154 4.65224 -3
    endloop
  endfacet
  facet normal -0 0 -1
    outer loop
      vertex 29.4022 5.73463 -3
      vertex -3 0 -3
      vertex 29.25 6.5 -3
    endloop
  endfacet
  facet normal -0 0 -1
    outer loop
      vertex 29.8358 5.08579 -3
      vertex -3 0 -3
      vertex 29.4022 5.73463 -3
    endloop
  endfacet
  facet normal -0 0 -1
    outer loop
      vertex 30.4846 4.65224 -3
      vertex -3 0 -3
      vertex 29.8358 5.08579 -3
    endloop
  endfacet
  facet normal -0 0 -1
    outer loop
      vertex 31.25 4.5 -3
      vertex -3 0 -3
      vertex 30.4846 4.65224 -3
    endloop
  endfacet
  facet normal 0 0 -1
    outer loop
      vertex -3 0 -3
      vertex 31.25 4.5 -3
      vertex 65.5 0 -3
    endloop
  endfacet
  facet normal 0 0 -1
    outer loop
      vertex 33.0978 7.26537 -3
      vertex 65.5 13 -3
      vertex 33.25 6.5 -3
    endloop
  endfacet
  facet normal 0 0 -1
    outer loop
      vertex 32.6642 7.91421 -3
      vertex 65.5 13 -3
      vertex 33.0978 7.26537 -3
    endloop
  endfacet
  facet normal 0 0 -1
    outer loop
      vertex 32.0154 8.34776 -3
      vertex 65.5 13 -3
      vertex 32.6642 7.91421 -3
    endloop
  endfacet
  facet normal 0 0 -1
    outer loop
      vertex 31.25 8.5 -3
      vertex 65.5 13 -3
      vertex 32.0154 8.34776 -3
    endloop
  endfacet
  facet normal 0 0 -1
    outer loop
      vertex -3 13 -3
      vertex 29.25 6.5 -3
      vertex -3 0 -3
    endloop
  endfacet
  facet normal 0 0 -1
    outer loop
      vertex 29.25 6.5 -3
      vertex -3 13 -3
      vertex 29.4022 7.26537 -3
    endloop
  endfacet
  facet normal 0 0 -1
    outer loop
      vertex 29.4022 7.26537 -3
      vertex -3 13 -3
      vertex 29.8358 7.91421 -3
    endloop
  endfacet
  facet normal 0 0 -1
    outer loop
      vertex 31.25 8.5 -3
      vertex -3 13 -3
      vertex 65.5 13 -3
    endloop
  endfacet
  facet normal 0 0 -1
    outer loop
      vertex 30.4846 8.34776 -3
      vertex -3 13 -3
      vertex 31.25 8.5 -3
    endloop
  endfacet
  facet normal 0 0 -1
    outer loop
      vertex 29.8358 7.91421 -3
      vertex -3 13 -3
      vertex 30.4846 8.34776 -3
    endloop
  endfacet
  facet normal -1 0 0
    outer loop
      vertex -3 0 -3
      vertex -3 13 15.5
      vertex -3 13 -3
    endloop
  endfacet
  facet normal -1 -0 0
    outer loop
      vertex -3 13 15.5
      vertex -3 0 -3
      vertex -3 0 15.5
    endloop
  endfacet
  facet normal 0 1 0
    outer loop
      vertex 65.5 13 15.5
      vertex 62.5 13 12.5
      vertex 61 13 15.5
    endloop
  endfacet
  facet normal 0 1 0
    outer loop
      vertex 65.5 13 15.5
      vertex 62.5 13 3
      vertex 62.5 13 12.5
    endloop
  endfacet
  facet normal 0 1 0
    outer loop
      vertex 62.5 13 3
      vertex 65.5 13 -3
      vertex 0 13 3
    endloop
  endfacet
  facet normal 0 1 -0
    outer loop
      vertex 65.5 13 -3
      vertex 62.5 13 3
      vertex 65.5 13 15.5
    endloop
  endfacet
  facet normal 0 1 0
    outer loop
      vertex 61 13 15.5
      vertex 62.5 13 12.5
      vertex 61 13 12.5
    endloop
  endfacet
  facet normal 0 1 0
    outer loop
      vertex 0 13 12.5
      vertex 1.5 13 15.5
      vertex 1.5 13 12.5
    endloop
  endfacet
  facet normal 0 1 0
    outer loop
      vertex 1.5 13 15.5
      vertex 0 13 12.5
      vertex -3 13 15.5
    endloop
  endfacet
  facet normal 0 1 -0
    outer loop
      vertex 0 13 3
      vertex -3 13 15.5
      vertex 0 13 12.5
    endloop
  endfacet
  facet normal 0 1 0
    outer loop
      vertex 0 13 3
      vertex -3 13 -3
      vertex -3 13 15.5
    endloop
  endfacet
  facet normal 0 1 0
    outer loop
      vertex -3 13 -3
      vertex 0 13 3
      vertex 65.5 13 -3
    endloop
  endfacet
  facet normal -0.831435 -0.555622 0
    outer loop
      vertex 33.0978 7.26537 -3
      vertex 32.6642 7.91421 -2
      vertex 32.6642 7.91421 -3
    endloop
  endfacet
  facet normal -0.831435 -0.555622 0
    outer loop
      vertex 32.6642 7.91421 -2
      vertex 33.0978 7.26537 -3
      vertex 33.0978 7.26537 -2
    endloop
  endfacet
  facet normal -0.980795 -0.195039 0
    outer loop
      vertex 33.25 6.5 -3
      vertex 33.0978 7.26537 -2
      vertex 33.0978 7.26537 -3
    endloop
  endfacet
  facet normal -0.980795 -0.195039 0
    outer loop
      vertex 33.0978 7.26537 -2
      vertex 33.25 6.5 -3
      vertex 33.25 6.5 -2
    endloop
  endfacet
  facet normal -0.555602 -0.831448 0
    outer loop
      vertex 32.0154 8.34776 -3
      vertex 32.6642 7.91421 -2
      vertex 32.0154 8.34776 -2
    endloop
  endfacet
  facet normal -0.555602 -0.831448 -0
    outer loop
      vertex 32.6642 7.91421 -2
      vertex 32.0154 8.34776 -3
      vertex 32.6642 7.91421 -3
    endloop
  endfacet
  facet normal 0.980795 0.195039 0
    outer loop
      vertex 29.4022 5.73463 -2
      vertex 29.25 6.5 -3
      vertex 29.25 6.5 -2
    endloop
  endfacet
  facet normal 0.980795 0.195039 0
    outer loop
      vertex 29.25 6.5 -3
      vertex 29.4022 5.73463 -2
      vertex 29.4022 5.73463 -3
    endloop
  endfacet
  facet normal -0.555602 0.831448 0
    outer loop
      vertex 32.6642 5.08579 -3
      vertex 32.0154 4.65224 -2
      vertex 32.6642 5.08579 -2
    endloop
  endfacet
  facet normal -0.555602 0.831448 0
    outer loop
      vertex 32.0154 4.65224 -2
      vertex 32.6642 5.08579 -3
      vertex 32.0154 4.65224 -3
    endloop
  endfacet
  facet normal 0.831435 -0.555622 0
    outer loop
      vertex 29.4022 7.26537 -2
      vertex 29.8358 7.91421 -3
      vertex 29.8358 7.91421 -2
    endloop
  endfacet
  facet normal 0.831435 -0.555622 0
    outer loop
      vertex 29.8358 7.91421 -3
      vertex 29.4022 7.26537 -2
      vertex 29.4022 7.26537 -3
    endloop
  endfacet
  facet normal -0.831435 0.555622 0
    outer loop
      vertex 32.6642 5.08579 -3
      vertex 33.0978 5.73463 -2
      vertex 33.0978 5.73463 -3
    endloop
  endfacet
  facet normal -0.831435 0.555622 0
    outer loop
      vertex 33.0978 5.73463 -2
      vertex 32.6642 5.08579 -3
      vertex 32.6642 5.08579 -2
    endloop
  endfacet
  facet normal 0.195081 0.980787 -0
    outer loop
      vertex 31.25 4.5 -3
      vertex 30.4846 4.65224 -2
      vertex 31.25 4.5 -2
    endloop
  endfacet
  facet normal 0.195081 0.980787 0
    outer loop
      vertex 30.4846 4.65224 -2
      vertex 31.25 4.5 -3
      vertex 30.4846 4.65224 -3
    endloop
  endfacet
  facet normal 0.195081 -0.980787 0
    outer loop
      vertex 30.4846 8.34776 -3
      vertex 31.25 8.5 -2
      vertex 30.4846 8.34776 -2
    endloop
  endfacet
  facet normal 0.195081 -0.980787 0
    outer loop
      vertex 31.25 8.5 -2
      vertex 30.4846 8.34776 -3
      vertex 31.25 8.5 -3
    endloop
  endfacet
  facet normal -0.980795 0.195039 0
    outer loop
      vertex 33.0978 5.73463 -3
      vertex 33.25 6.5 -2
      vertex 33.25 6.5 -3
    endloop
  endfacet
  facet normal -0.980795 0.195039 0
    outer loop
      vertex 33.25 6.5 -2
      vertex 33.0978 5.73463 -3
      vertex 33.0978 5.73463 -2
    endloop
  endfacet
  facet normal 0.831435 0.555622 0
    outer loop
      vertex 29.8358 5.08579 -2
      vertex 29.4022 5.73463 -3
      vertex 29.4022 5.73463 -2
    endloop
  endfacet
  facet normal 0.831435 0.555622 0
    outer loop
      vertex 29.4022 5.73463 -3
      vertex 29.8358 5.08579 -2
      vertex 29.8358 5.08579 -3
    endloop
  endfacet
  facet normal -0.195081 0.980787 0
    outer loop
      vertex 32.0154 4.65224 -3
      vertex 31.25 4.5 -2
      vertex 32.0154 4.65224 -2
    endloop
  endfacet
  facet normal -0.195081 0.980787 0
    outer loop
      vertex 31.25 4.5 -2
      vertex 32.0154 4.65224 -3
      vertex 31.25 4.5 -3
    endloop
  endfacet
  facet normal 0.980795 -0.195039 0
    outer loop
      vertex 29.25 6.5 -2
      vertex 29.4022 7.26537 -3
      vertex 29.4022 7.26537 -2
    endloop
  endfacet
  facet normal 0.980795 -0.195039 0
    outer loop
      vertex 29.4022 7.26537 -3
      vertex 29.25 6.5 -2
      vertex 29.25 6.5 -3
    endloop
  endfacet
  facet normal -0.195081 -0.980787 0
    outer loop
      vertex 31.25 8.5 -3
      vertex 32.0154 8.34776 -2
      vertex 31.25 8.5 -2
    endloop
  endfacet
  facet normal -0.195081 -0.980787 -0
    outer loop
      vertex 32.0154 8.34776 -2
      vertex 31.25 8.5 -3
      vertex 32.0154 8.34776 -3
    endloop
  endfacet
  facet normal 0.555602 -0.831448 0
    outer loop
      vertex 29.8358 7.91421 -3
      vertex 30.4846 8.34776 -2
      vertex 29.8358 7.91421 -2
    endloop
  endfacet
  facet normal 0.555602 -0.831448 0
    outer loop
      vertex 30.4846 8.34776 -2
      vertex 29.8358 7.91421 -3
      vertex 30.4846 8.34776 -3
    endloop
  endfacet
  facet normal 0.555602 0.831448 -0
    outer loop
      vertex 30.4846 4.65224 -3
      vertex 29.8358 5.08579 -2
      vertex 30.4846 4.65224 -2
    endloop
  endfacet
  facet normal 0.555602 0.831448 0
    outer loop
      vertex 29.8358 5.08579 -2
      vertex 30.4846 4.65224 -3
      vertex 29.8358 5.08579 -3
    endloop
  endfacet
  facet normal -0.831465 -0.555578 0
    outer loop
      vertex 35.4075 8.22207 -2
      vertex 34.432 9.68198 3
      vertex 34.432 9.68198 -2
    endloop
  endfacet
  facet normal -0.831465 -0.555578 0
    outer loop
      vertex 34.432 9.68198 3
      vertex 35.4075 8.22207 -2
      vertex 35.4075 8.22207 3
    endloop
  endfacet
  facet normal -0.98079 -0.195068 0
    outer loop
      vertex 35.75 6.5 -2
      vertex 35.4075 8.22207 3
      vertex 35.4075 8.22207 -2
    endloop
  endfacet
  facet normal -0.98079 -0.195068 0
    outer loop
      vertex 35.4075 8.22207 3
      vertex 35.75 6.5 -2
      vertex 35.75 6.5 3
    endloop
  endfacet
  facet normal -0.555588 -0.831458 0
    outer loop
      vertex 32.9721 10.6575 -2
      vertex 34.432 9.68198 3
      vertex 32.9721 10.6575 3
    endloop
  endfacet
  facet normal -0.555588 -0.831458 -0
    outer loop
      vertex 34.432 9.68198 3
      vertex 32.9721 10.6575 -2
      vertex 34.432 9.68198 -2
    endloop
  endfacet
  facet normal -0.831463 0.55558 0
    outer loop
      vertex 34.432 3.31802 -2
      vertex 35.4075 4.77792 3
      vertex 35.4075 4.77792 -2
    endloop
  endfacet
  facet normal -0.831463 0.55558 0
    outer loop
      vertex 35.4075 4.77792 3
      vertex 34.432 3.31802 -2
      vertex 34.432 3.31802 3
    endloop
  endfacet
  facet normal 0.195065 -0.98079 0
    outer loop
      vertex 29.5279 10.6575 -2
      vertex 31.25 11 3
      vertex 29.5279 10.6575 3
    endloop
  endfacet
  facet normal 0.195065 -0.98079 0
    outer loop
      vertex 31.25 11 3
      vertex 29.5279 10.6575 -2
      vertex 31.25 11 -2
    endloop
  endfacet
  facet normal 0.831465 -0.555578 0
    outer loop
      vertex 27.0925 8.22207 3
      vertex 28.068 9.68198 -2
      vertex 28.068 9.68198 3
    endloop
  endfacet
  facet normal 0.831465 -0.555578 0
    outer loop
      vertex 28.068 9.68198 -2
      vertex 27.0925 8.22207 3
      vertex 27.0925 8.22207 -2
    endloop
  endfacet
  facet normal 0.98079 -0.195068 0
    outer loop
      vertex 26.75 6.5 3
      vertex 27.0925 8.22207 -2
      vertex 27.0925 8.22207 3
    endloop
  endfacet
  facet normal 0.98079 -0.195068 0
    outer loop
      vertex 27.0925 8.22207 -2
      vertex 26.75 6.5 3
      vertex 26.75 6.5 -2
    endloop
  endfacet
  facet normal -0.195086 0.980786 0
    outer loop
      vertex 32.9721 2.34254 -2
      vertex 31.25 2 3
      vertex 32.9721 2.34254 3
    endloop
  endfacet
  facet normal -0.195086 0.980786 0
    outer loop
      vertex 31.25 2 3
      vertex 32.9721 2.34254 -2
      vertex 31.25 2 -2
    endloop
  endfacet
  facet normal 0.195086 0.980786 -0
    outer loop
      vertex 31.25 2 -2
      vertex 29.5279 2.34254 3
      vertex 31.25 2 3
    endloop
  endfacet
  facet normal 0.195086 0.980786 0
    outer loop
      vertex 29.5279 2.34254 3
      vertex 31.25 2 -2
      vertex 29.5279 2.34254 -2
    endloop
  endfacet
  facet normal 0.98079 0.195067 0
    outer loop
      vertex 27.0925 4.77792 3
      vertex 26.75 6.5 -2
      vertex 26.75 6.5 3
    endloop
  endfacet
  facet normal 0.98079 0.195067 0
    outer loop
      vertex 26.75 6.5 -2
      vertex 27.0925 4.77792 3
      vertex 27.0925 4.77792 -2
    endloop
  endfacet
  facet normal -0.195065 -0.98079 0
    outer loop
      vertex 31.25 11 -2
      vertex 32.9721 10.6575 3
      vertex 31.25 11 3
    endloop
  endfacet
  facet normal -0.195065 -0.98079 -0
    outer loop
      vertex 32.9721 10.6575 3
      vertex 31.25 11 -2
      vertex 32.9721 10.6575 -2
    endloop
  endfacet
  facet normal -0.98079 0.195067 0
    outer loop
      vertex 35.4075 4.77792 -2
      vertex 35.75 6.5 3
      vertex 35.75 6.5 -2
    endloop
  endfacet
  facet normal -0.98079 0.195067 0
    outer loop
      vertex 35.75 6.5 3
      vertex 35.4075 4.77792 -2
      vertex 35.4075 4.77792 3
    endloop
  endfacet
  facet normal -0.555573 0.831468 0
    outer loop
      vertex 34.432 3.31802 -2
      vertex 32.9721 2.34254 3
      vertex 34.432 3.31802 3
    endloop
  endfacet
  facet normal -0.555573 0.831468 0
    outer loop
      vertex 32.9721 2.34254 3
      vertex 34.432 3.31802 -2
      vertex 32.9721 2.34254 -2
    endloop
  endfacet
  facet normal 0.831463 0.55558 0
    outer loop
      vertex 28.068 3.31802 3
      vertex 27.0925 4.77792 -2
      vertex 27.0925 4.77792 3
    endloop
  endfacet
  facet normal 0.831463 0.55558 0
    outer loop
      vertex 27.0925 4.77792 -2
      vertex 28.068 3.31802 3
      vertex 28.068 3.31802 -2
    endloop
  endfacet
  facet normal 0.555588 -0.831458 0
    outer loop
      vertex 28.068 9.68198 -2
      vertex 29.5279 10.6575 3
      vertex 28.068 9.68198 3
    endloop
  endfacet
  facet normal 0.555588 -0.831458 0
    outer loop
      vertex 29.5279 10.6575 3
      vertex 28.068 9.68198 -2
      vertex 29.5279 10.6575 -2
    endloop
  endfacet
  facet normal 0.555573 0.831468 -0
    outer loop
      vertex 29.5279 2.34254 -2
      vertex 28.068 3.31802 3
      vertex 29.5279 2.34254 3
    endloop
  endfacet
  facet normal 0.555573 0.831468 0
    outer loop
      vertex 28.068 3.31802 3
      vertex 29.5279 2.34254 -2
      vertex 28.068 3.31802 -2
    endloop
  endfacet
  facet normal 0 0 1
    outer loop
      vertex 33.25 6.5 -2
      vertex 35.75 6.5 -2
      vertex 35.4075 8.22207 -2
    endloop
  endfacet
  facet normal 0 0 1
    outer loop
      vertex 33.0978 7.26537 -2
      vertex 35.4075 8.22207 -2
      vertex 34.432 9.68198 -2
    endloop
  endfacet
  facet normal 0 0 1
    outer loop
      vertex 35.75 6.5 -2
      vertex 33.25 6.5 -2
      vertex 35.4075 4.77792 -2
    endloop
  endfacet
  facet normal -0 0 1
    outer loop
      vertex 33.0978 5.73463 -2
      vertex 35.4075 4.77792 -2
      vertex 33.25 6.5 -2
    endloop
  endfacet
  facet normal 0 0 1
    outer loop
      vertex 35.4075 8.22207 -2
      vertex 33.0978 7.26537 -2
      vertex 33.25 6.5 -2
    endloop
  endfacet
  facet normal 0 0 1
    outer loop
      vertex 32.6642 7.91421 -2
      vertex 34.432 9.68198 -2
      vertex 32.9721 10.6575 -2
    endloop
  endfacet
  facet normal 0 0 1
    outer loop
      vertex 34.432 9.68198 -2
      vertex 32.6642 7.91421 -2
      vertex 33.0978 7.26537 -2
    endloop
  endfacet
  facet normal 0 0 1
    outer loop
      vertex 32.9721 10.6575 -2
      vertex 32.0154 8.34776 -2
      vertex 32.6642 7.91421 -2
    endloop
  endfacet
  facet normal 0 0 1
    outer loop
      vertex 31.25 11 -2
      vertex 32.0154 8.34776 -2
      vertex 32.9721 10.6575 -2
    endloop
  endfacet
  facet normal 0 0 1
    outer loop
      vertex 31.25 11 -2
      vertex 31.25 8.5 -2
      vertex 32.0154 8.34776 -2
    endloop
  endfacet
  facet normal 0 0 1
    outer loop
      vertex 31.25 11 -2
      vertex 30.4846 8.34776 -2
      vertex 31.25 8.5 -2
    endloop
  endfacet
  facet normal -0 0 1
    outer loop
      vertex 29.5279 10.6575 -2
      vertex 30.4846 8.34776 -2
      vertex 31.25 11 -2
    endloop
  endfacet
  facet normal 0 0 1
    outer loop
      vertex 30.4846 8.34776 -2
      vertex 29.5279 10.6575 -2
      vertex 29.8358 7.91421 -2
    endloop
  endfacet
  facet normal -0 0 1
    outer loop
      vertex 28.068 9.68198 -2
      vertex 29.8358 7.91421 -2
      vertex 29.5279 10.6575 -2
    endloop
  endfacet
  facet normal 0 0 1
    outer loop
      vertex 29.8358 7.91421 -2
      vertex 28.068 9.68198 -2
      vertex 29.4022 7.26537 -2
    endloop
  endfacet
  facet normal -0 0 1
    outer loop
      vertex 27.0925 8.22207 -2
      vertex 29.4022 7.26537 -2
      vertex 28.068 9.68198 -2
    endloop
  endfacet
  facet normal 0 0 1
    outer loop
      vertex 35.4075 4.77792 -2
      vertex 33.0978 5.73463 -2
      vertex 34.432 3.31802 -2
    endloop
  endfacet
  facet normal -0 0 1
    outer loop
      vertex 32.6642 5.08579 -2
      vertex 34.432 3.31802 -2
      vertex 33.0978 5.73463 -2
    endloop
  endfacet
  facet normal 0 0 1
    outer loop
      vertex 34.432 3.31802 -2
      vertex 32.6642 5.08579 -2
      vertex 32.9721 2.34254 -2
    endloop
  endfacet
  facet normal -0 0 1
    outer loop
      vertex 32.0154 4.65224 -2
      vertex 32.9721 2.34254 -2
      vertex 32.6642 5.08579 -2
    endloop
  endfacet
  facet normal -0 0 1
    outer loop
      vertex 31.25 4.5 -2
      vertex 32.9721 2.34254 -2
      vertex 32.0154 4.65224 -2
    endloop
  endfacet
  facet normal 0 0 1
    outer loop
      vertex 31.25 4.5 -2
      vertex 31.25 2 -2
      vertex 32.9721 2.34254 -2
    endloop
  endfacet
  facet normal 0 0 1
    outer loop
      vertex 30.4846 4.65224 -2
      vertex 31.25 2 -2
      vertex 31.25 4.5 -2
    endloop
  endfacet
  facet normal 0 0 1
    outer loop
      vertex 29.5279 2.34254 -2
      vertex 30.4846 4.65224 -2
      vertex 29.8358 5.08579 -2
    endloop
  endfacet
  facet normal 0 0 1
    outer loop
      vertex 30.4846 4.65224 -2
      vertex 29.5279 2.34254 -2
      vertex 31.25 2 -2
    endloop
  endfacet
  facet normal 0 0 1
    outer loop
      vertex 28.068 3.31802 -2
      vertex 29.8358 5.08579 -2
      vertex 29.4022 5.73463 -2
    endloop
  endfacet
  facet normal 0 0 1
    outer loop
      vertex 27.0925 4.77792 -2
      vertex 29.4022 5.73463 -2
      vertex 29.25 6.5 -2
    endloop
  endfacet
  facet normal 0 0 1
    outer loop
      vertex 29.4022 7.26537 -2
      vertex 27.0925 8.22207 -2
      vertex 29.25 6.5 -2
    endloop
  endfacet
  facet normal 0 0 1
    outer loop
      vertex 29.8358 5.08579 -2
      vertex 28.068 3.31802 -2
      vertex 29.5279 2.34254 -2
    endloop
  endfacet
  facet normal 0 0 1
    outer loop
      vertex 26.75 6.5 -2
      vertex 29.25 6.5 -2
      vertex 27.0925 8.22207 -2
    endloop
  endfacet
  facet normal 0 0 1
    outer loop
      vertex 29.4022 5.73463 -2
      vertex 27.0925 4.77792 -2
      vertex 28.068 3.31802 -2
    endloop
  endfacet
  facet normal 0 0 1
    outer loop
      vertex 29.25 6.5 -2
      vertex 26.75 6.5 -2
      vertex 27.0925 4.77792 -2
    endloop
  endfacet
endsolid OpenSCAD_Model
